<!DOCTYPE svg PUBLIC "-//W3C//DTD SVG 20010904//EN" "http://www.w3.org/TR/2001/REC-SVG-20010904/DTD/svg10.dtd">
<svg version="1.0" xmlns="http://www.w3.org/2000/svg" width="502px" height="188px" viewBox="0 0 5020 1880" preserveAspectRatio="xMidYMid meet">
<g id="layer1" fill="#000000" stroke="none">
 <path d="M982 1705 c-175 -49 -208 -62 -360 -141 -166 -87 -188 -102 -173 -117 4 -4 106 -19 225 -33 276 -32 305 -42 435 -153 l98 -83 7 -95 c4 -52 6 -97 4 -99 -2 -2 -64 -51 -138 -109 l-135 -105 -120 0 -121 0 -244 180 c-134 99 -248 180 -252 180 -19 0 -17 -34 12 -222 l31 -202 124 -211 124 -210 86 -43 c78 -38 95 -43 205 -53 l120 -11 184 62 184 61 93 115 c52 64 101 124 109 135 14 18 68 19 1408 39 l1393 20 152 -31 c139 -28 158 -30 220 -20 105 17 134 37 201 135 l59 86 -17 103 c-9 56 -21 130 -27 165 l-11 63 -109 54 c-104 53 -112 55 -188 55 -69 0 -88 -4 -157 -36 l-79 -36 -1309 8 -1309 9 -79 230 c-77 226 -80 231 -131 282 l-52 53 -114 15 c-63 8 -124 15 -135 14 -12 0 -108 -25 -214 -54z m3685 -670 c93 -61 116 -164 57 -246 -67 -93 -172 -113 -259 -50 -119 87 -106 238 27 305 64 33 117 30 175 -9z"/>
 </g>

</svg>